<?xml version="1.0" encoding="UTF-8"?>
<svg width="418px" height="133px" viewBox="0 0 418 133" version="1.1" xmlns="http://www.w3.org/2000/svg" xmlns:xlink="http://www.w3.org/1999/xlink">
    <title>Group Copy 4</title>
    <g id="Concept" stroke="none" stroke-width="1" fill="none" fill-rule="evenodd">
        <g id="Group-Copy-4" transform="translate(0.000000, -0.000000)" fill="#000000" fill-rule="nonzero">
            <g id="􀉢-copy-2" transform="translate(354.393821, 66.500000) rotate(-20.000000) translate(-354.393821, -66.500000) translate(306.320414, 13.229467)">
                <path d="M81.2989387,55.3042341 L44.8067255,91.319565 C35.5106061,100.543003 23.0498504,99.6157795 15.088812,91.7099751 C7.0288787,83.8041708 6.13882472,71.5550541 15.4843915,62.3316157 L65.3768619,13.0911429 C70.8160807,7.72300416 78.9749089,6.74697893 84.2657853,12.0175152 C89.6061092,17.2880514 88.6171603,25.242657 83.1779416,30.659597 L34.2249726,79.0216471 C31.9998376,81.2177039 29.3791231,80.5832875 27.8462524,79.1192497 C26.3628291,77.5576093 25.7200123,75.0199437 27.9451473,72.7750857 L62.0638832,39.1022153 C63.7945437,37.3941711 63.8934386,34.9053068 62.261673,33.2460639 C60.5804599,31.6844235 58.0586403,31.7332248 56.3279798,33.4412689 L22.0114541,67.2605431 C16.7700251,72.5310794 16.9678148,80.5344863 21.6653219,85.1706061 C26.7584086,90.197136 34.4722098,90.0995335 39.8125337,84.8289973 L89.0127399,36.2717421 C98.5560965,26.8530986 98.2099644,14.4575782 89.8533464,6.16136379 C81.6450708,-1.89084435 68.8876304,-2.47645949 59.2948264,6.94218397 L9.10567132,56.5730669 C-3.40453186,68.919786 -2.56392532,86.6346439 8.80898666,97.8589341 C20.1818986,109.034423 38.180768,109.912846 50.6909712,97.6149278 L87.4304217,61.3555905 C89.1116348,59.7451489 89.0621873,56.7682719 87.3809742,55.1578303 C85.7492086,53.4497861 83.0295992,53.6937924 81.2989387,55.3042341 Z" id="Path"></path>
            </g>
            <g id="Lawry-Copy" transform="translate(0.000000, 18.000000)">
                <path d="M53.3102519,78.5520199 L54.3931231,57.6577402 L52.9538531,57.6577402 C52.1111451,61.3619657 51.119724,64.394563 49.9795897,66.7555322 C48.8394555,69.1165014 47.3732633,70.9650725 45.5810132,72.3012457 C43.7887631,73.6374188 41.5274398,74.6034244 38.7970433,75.1992624 C36.0666467,75.7951004 32.6966696,76.1819843 28.6871119,76.359914 L18.7908489,76.761106 L18.7908489,9.20021494 C18.7908489,7.43621709 18.9726094,6.05981144 19.3361305,5.070998 C19.6996516,4.08218455 20.4640144,3.32669142 21.6292192,2.80451859 C22.7944239,2.28234576 24.557615,1.86486249 26.9187927,1.55206878 L26.9187927,0 L0,0 L0,1.55206878 C2.14238127,1.87449563 3.75301324,2.26718773 4.83189594,2.73014508 C5.91077863,3.19310244 6.63012872,3.85651409 6.98994621,4.72038005 C7.34976371,5.58424601 7.52967245,6.82054614 7.52967245,8.42928045 L7.52967245,70.1227395 C7.52967245,71.7088076 7.34976371,72.9394412 6.98994621,73.8146402 C6.63012872,74.6898393 5.91077863,75.3531093 4.83189594,75.8044502 C3.75301324,76.2557911 2.14238127,76.6542914 0,76.9999512 L0,78.5520199 L53.3102519,78.5520199 Z" id="Path"></path>
                <path d="M74.3236755,79.4734014 C76.9298596,79.4734014 79.3306371,79.1278833 81.5260081,78.4368472 C83.7213791,77.7458111 85.6258763,76.7986469 87.2394996,75.5953544 C88.853123,74.3920619 90.0684685,73.0325143 90.8855362,71.5167114 C91.2171495,73.1713448 91.8315172,74.5722583 92.7286394,75.7194519 C93.6257615,76.8666455 94.7657534,77.736178 96.1486149,78.3280494 C97.5314764,78.9199209 99.0998021,79.2158566 100.853592,79.2158566 C102.578892,79.2158566 104.140381,79.0070441 105.538057,78.5894192 C106.935732,78.1717942 108.051081,77.6776709 108.884103,77.107049 L108.884103,75.6748278 C108.196945,75.9224562 107.416344,76.0462703 106.542298,76.0462703 C104.855173,76.0462703 103.465189,75.5051146 102.372346,74.422803 C101.279504,73.3404914 100.733083,71.5957599 100.733083,69.1886083 L100.733083,41.3746178 C100.733083,35.7885301 98.9016603,31.7206536 95.2388151,29.1709882 C91.5759699,26.6213228 86.8178607,25.3464902 80.9644877,25.3464902 C77.1344114,25.3464902 73.7040373,25.8584632 70.6733655,26.8824093 C67.6426938,27.9063553 65.2554486,29.2899858 63.51163,31.0333008 C61.7678114,32.7766157 60.8959021,34.7388012 60.8959021,36.9198574 C60.8959021,38.4673929 61.4317823,39.7515754 62.5035427,40.7724049 C63.5753032,41.7932343 64.8476269,42.3036491 66.320514,42.3036491 C67.8634844,42.3036491 69.1615908,41.7940843 70.2148333,40.7749548 C71.2680758,39.7558253 71.794697,38.5039422 71.794697,37.0193054 C71.794697,35.446837 71.2766225,34.1550046 70.2404735,33.1438083 C69.2043245,32.132612 67.9731675,31.6270138 66.5470025,31.6270138 C65.2963304,31.6270138 64.1594724,32.1715695 63.1364284,33.260681 C62.1133843,34.3497924 61.5787861,35.7159982 61.5326338,37.3592985 L62.5565325,37.3592985 C62.7707706,35.4865029 63.5592068,33.8508524 64.9218411,32.4523472 C66.2844753,31.053842 68.0345615,29.9692638 70.1720996,29.1986127 C72.3096377,28.4279615 74.6327824,28.0426359 77.1415337,28.0426359 C81.2508033,28.0426359 84.5452842,29.134864 87.0249766,31.31932 C89.504669,33.5037761 90.7445151,37.1864687 90.7445151,42.3673978 L90.7445151,69.9595428 C89.5975435,71.7365737 88.1294995,73.0591471 86.3403832,73.927263 C84.551267,74.7953788 82.4644395,75.2294368 80.0799007,75.2294368 C77.174581,75.2294368 74.7108426,74.3206634 72.6886854,72.5031166 C70.6665282,70.6855698 69.6554496,68.1176298 69.6554496,64.7992966 C69.6554496,62.5655415 70.1155487,60.6094475 71.0357471,58.9310146 C71.9559454,57.2525817 73.5437861,55.7967027 75.7992691,54.5633775 C78.0547522,53.3300523 81.1701791,52.2798984 85.1455498,51.4129158 L93.8674917,49.514054 L93.8674917,47.6083924 L79.8730698,50.6300816 C74.9501511,51.6817938 70.9710768,52.9438767 67.9358467,54.4163304 C64.9006167,55.8887841 62.6917133,57.6244492 61.3091367,59.6233257 C59.9265601,61.6222021 59.2352717,63.9362806 59.2352717,66.565561 C59.2352717,70.4766157 60.6753964,73.6056861 63.5556457,75.9527722 C66.4358949,78.2998583 70.0252382,79.4734014 74.3236755,79.4734014 Z" id="Path"></path>
                <path d="M112.772913,36.3027698 L127.521157,78.5520199 L130.897972,78.5520199 L147.476926,34.1217136 L145.984666,34.1217136 L161.717494,78.5520199 L165.094308,78.5520199 L179.875884,38.4719261 C180.902632,35.6845489 181.826819,33.5795662 182.648445,32.1569782 C183.470071,30.7343901 184.371751,29.7250354 185.353486,29.1289141 C186.335221,28.5327927 187.564526,28.0964682 189.041402,27.8199404 L189.041402,26.2678716 L172.557316,26.2678716 L172.557316,27.8199404 C174.533321,28.1389673 175.979998,28.5997997 176.897348,29.2024376 C177.814697,29.8050755 178.263685,30.7846808 178.244313,32.1412535 C178.22494,33.4978262 177.781365,35.4556201 176.913586,38.0146353 L166.866046,68.2289776 L167.709609,68.1949783 L157.444127,37.5666943 C156.62592,35.1363099 156.201432,33.2738557 156.170664,31.9793317 C156.139895,30.6848078 156.557261,29.7443017 157.42276,29.1578135 C158.288259,28.5713253 159.67397,28.1253676 161.579891,27.8199404 L161.579891,26.2678716 L139.017369,26.2678716 L139.017369,27.8199404 C140.923291,28.1253676 142.312277,28.5769918 143.184329,29.1748132 C144.056381,29.7726345 144.467906,30.7188071 144.418905,32.0133311 C144.369903,33.307855 143.941142,35.1589761 143.132621,37.5666943 L132.679111,68.2289776 L133.522674,68.1949783 L123.721279,37.5666943 C122.949794,35.1227102 122.542827,33.256856 122.500379,31.9691319 C122.45793,30.6814078 122.880423,29.7477016 123.767859,29.1680133 C124.655295,28.5883249 126.092143,28.1389673 128.078404,27.8199404 L128.078404,26.2678716 L104.121055,26.2678716 L104.121055,27.8199404 C105.621292,28.1134678 106.875525,28.5116848 107.883754,29.0145914 C108.891984,29.5174979 109.773152,30.3195985 110.527259,31.420893 C111.281366,32.5221875 112.029917,34.1494798 112.772913,36.3027698 Z" id="Path"></path>
                <path d="M192.326378,78.5520199 L203.122848,78.5520199 L203.122848,47.3842607 C203.122848,39.5798935 207.421442,35.0563431 214.369171,35.0563431 C216.468484,35.0563431 218.367863,35.3048898 219.217585,35.6528553 L219.217585,25.6612769 C218.367863,25.5121489 217.018304,25.2636022 215.468811,25.2636022 C209.470772,25.2636022 205.07221,29.0912217 203.372766,35.2054712 L203.122848,35.2054712 L203.122848,26.2577891 L192.326378,26.2577891 L192.326378,78.5520199 Z" id="Path"></path>
                <path d="M233.712846,96 C244.009479,96 249.507681,91.824415 253.406407,80.9877778 L273,26.2577891 L261.603726,26.2577891 L248.358057,68.8089883 L248.008172,68.8089883 L234.762503,26.2577891 L223.066327,26.2577891 L242.210067,78.6017293 L241.310362,81.0871965 C239.51095,86.1575497 236.711865,87.499702 231.613532,87.499702 C230.164006,87.499702 228.914415,87.3008646 228.064693,87.1020273 L228.064693,95.5029066 C229.364268,95.7514533 231.613532,96 233.712846,96 Z" id="Path"></path>
            </g>
        </g>
    </g>
</svg>